<?xml version="1.0" encoding="utf-8"?><!-- Uploaded to: SVG Repo, www.svgrepo.com, Generator: SVG Repo Mixer Tools -->
<svg fill="#000000" width="800px" height="800px" viewBox="0 0 24 24" id="moon-alt-7" xmlns="http://www.w3.org/2000/svg" class="icon multi-color"><title style="stroke-width: 2;">moon alt 7</title><path id="secondary-fill" d="M9.36,3a8.15,8.15,0,0,0-2,.24A8.32,8.32,0,0,1,9.31,4,9,9,0,0,1,14,12a9,9,0,0,1-4.69,8,8.32,8.32,0,0,1-1.94.76,8.15,8.15,0,0,0,2,.24A8.83,8.83,0,0,0,18,12,8.83,8.83,0,0,0,9.36,3Z" style="fill: rgb(44, 169, 188); stroke-width: 2;"></path><path id="primary-stroke" d="M6,20.29A8.26,8.26,0,0,0,9.36,21,8.83,8.83,0,0,0,18,12,8.83,8.83,0,0,0,9.36,3,8.26,8.26,0,0,0,6,3.71,9,9,0,0,1,11.28,12,9,9,0,0,1,6,20.29Z" style="fill: none; stroke: rgb(0, 0, 0); stroke-linecap: round; stroke-linejoin: round; stroke-width: 2;"></path></svg>